Coordinates
version=1
nRows=4
nColumns=114
inDegrees=yes

Units are S.I. units (second, meters, Newtons, ...)
If the header above contains a line with 'inDegrees', this indicates whether rotational values are in degrees (yes) or radians (no).

endheader 
time	pelvis_tilt	pelvis_list	pelvis_rotation	pelvis_tx	pelvis_ty	pelvis_tz	hip_flexion_l	hip_adduction_l	hip_rotation_l	hip_flexion_r	hip_adduction_r	hip_rotation_r	knee_angle_l	knee_angle_r	ankle_angle_l	ankle_angle_r	subtalar_angle_l	subtalar_angle_r	mtp_angle_l	mtp_angle_r	lumbar_extension	lumbar_bending	lumbar_rotation	arm_flex_l	arm_add_l	arm_rot_l	arm_flex_r	arm_add_r	arm_rot_r	elbow_flex_l	elbow_flex_r	pro_sup_l	pro_sup_r	addbrev_l/activation	addlong_l/activation	addmagDist_l/activation	addmagIsch_l/activation	addmagMid_l/activation	addmagProx_l/activation	bflh_l/activation	bfsh_l/activation	edl_l/activation	ehl_l/activation	fdl_l/activation	fhl_l/activation	gaslat_l/activation	gasmed_l/activation	glmax1_l/activation	glmax2_l/activation	glmax3_l/activation	glmed1_l/activation	glmed2_l/activation	glmed3_l/activation	glmin1_l/activation	glmin2_l/activation	glmin3_l/activation	grac_l/activation	iliacus_l/activation	perbrev_l/activation	perlong_l/activation	piri_l/activation	psoas_l/activation	recfem_l/activation	sart_l/activation	semimem_l/activation	semiten_l/activation	soleus_l/activation	tfl_l/activation	tibant_l/activation	tibpost_l/activation	vasint_l/activation	vaslat_l/activation	vasmed_l/activation	addbrev_r/activation	addlong_r/activation	addmagDist_r/activation	addmagIsch_r/activation	addmagMid_r/activation	addmagProx_r/activation	bflh_r/activation	bfsh_r/activation	edl_r/activation	ehl_r/activation	fdl_r/activation	fhl_r/activation	gaslat_r/activation	gasmed_r/activation	glmax1_r/activation	glmax2_r/activation	glmax3_r/activation	glmed1_r/activation	glmed2_r/activation	glmed3_r/activation	glmin1_r/activation	glmin2_r/activation	glmin3_r/activation	grac_r/activation	iliacus_r/activation	perbrev_r/activation	perlong_r/activation	piri_r/activation	psoas_r/activation	recfem_r/activation	sart_r/activation	semimem_r/activation	semiten_r/activation	soleus_r/activation	tfl_r/activation	tibant_r/activation	tibpost_r/activation	vasint_r/activation	vaslat_r/activation	vasmed_r/activation	
          6.82000000	          8.31936027	         -2.94999192	        -31.93182476	         -4.34633658	          1.12987398	          0.36524692	         21.22228386	         13.43436495	         11.88485995	         -8.73039974	         -2.04321009	        -24.73634452	         37.61625150	         64.01502253	          3.96787373	         -3.10644430	        -19.71974625	        -24.29658083	         -0.06517502	         -1.56655010	         -5.25459124	          1.67371104	         13.89824933	       -321.75659431	        -21.14265099	        -47.22403030	       -324.57142446	         -7.54375994	        -13.88975761	         53.31587438	        129.55576368	         87.23503185	         98.56866732	          0.01235239	          0.02626259	          0.01084801	          0.01033430	          0.01197280	          0.01362393	          0.01681994	          0.05773759	          0.05211332	          0.02741987	          0.01164786	          0.01084941	          0.01293813	          0.02636259	          0.06179070	          0.04306207	          0.01292351	          0.04954131	          0.08625475	          0.12778648	          0.01484023	          0.02247624	          0.04001295	          0.02513020	          0.03032623	          0.03447264	          0.03747700	          0.11085443	          0.09385678	          0.01726716	          0.04894990	          0.01744486	          0.01700194	          0.01013113	          0.22320903	          0.06202460	          0.01065495	          0.01014284	          0.01004873	          0.01010058	          0.16541898	          0.24428175	          0.03659928	          0.01003572	          0.15987500	          0.20755998	          0.03379966	          0.10444087	          0.18995412	          0.06383453	          0.02122795	          0.01779179	          0.06938604	          0.04334032	          0.01006071	          0.01002659	          0.01002962	          0.01013680	          0.02250513	          0.07115696	          0.01082708	          0.19470729	          0.15534487	          0.15074178	          0.19566796	          0.07660575	          0.10201238	          0.20291930	          0.30161485	          0.77025944	          0.21074957	          0.05171669	          0.06076627	          0.02207877	          0.37642123	          0.45453822	          0.02372243	          0.01003724	          0.01001354	          0.01002801	
          6.83000000	          8.20342600	         -3.10591776	        -31.60274344	         -4.32034057	          1.13738656	          0.36213134	         19.31100696	         13.65275573	         11.71166590	         -6.95927259	         -0.81749920	        -27.75730632	         35.65686094	         64.39068955	          2.62661926	         -1.63269801	        -19.14946735	        -21.64856695	         -0.07614428	         -1.34201142	         -4.64474527	          2.50036438	         13.52791784	       -333.70072728	        -23.56622071	        -35.81370543	       -328.16746582	         -6.16838154	        -18.67927831	         56.73670767	        129.14104606	         86.56202846	         98.33179257	          0.01031914	          0.02190305	          0.01009575	          0.01009720	          0.01016886	          0.01143339	          0.01403508	          0.05598750	          0.05270983	          0.02364762	          0.01072268	          0.01028476	          0.02917909	          0.02993900	          0.05150172	          0.03588864	          0.01080980	          0.11905763	          0.07227243	          0.10658229	          0.04740180	          0.06631518	          0.04649226	          0.02098836	          0.02538624	          0.03320327	          0.03624205	          0.09240503	          0.07830889	          0.26292792	          0.11187677	          0.01454270	          0.01420448	          0.01003249	          0.28620940	          0.05310439	          0.01023039	          0.01003458	          0.01001099	          0.01002386	          0.13785493	          0.20357336	          0.03050333	          0.01008719	          0.13323337	          0.17297339	          0.02817117	          0.08704558	          0.19547115	          0.05321097	          0.01772049	          0.01485197	          0.05782217	          0.03905131	          0.01003728	          0.01002118	          0.01003677	          0.01002796	          0.01875876	          0.05929987	          0.01013047	          0.16226797	          0.12946280	          0.12562281	          0.23218010	          0.06384427	          0.08709073	          0.16911920	          0.25136958	          0.74094696	          0.17566004	          0.04310080	          0.05064054	          0.01839930	          0.43548698	          0.52622356	          0.02586435	          0.01013386	          0.01005897	          0.01009792	
          6.84000000	          7.88211636	         -3.03761710	        -31.37553855	         -4.29422032	          1.14369725	          0.35884674	         17.78299447	         13.83353579	         11.19618556	         -4.90282107	          0.23427345	        -30.76223538	         33.67395027	         64.06103447	          0.68230960	          0.27891924	        -18.33722444	        -17.49977662	         -0.08714278	         -1.15343020	         -3.73887000	          3.27621731	         12.87029013	       -344.46182318	        -22.97136204	        -33.93702158	       -332.66882982	         -5.55831661	        -18.53236301	         59.06212141	        128.47297067	         86.07949658	         98.14405458	          0.01435147	          0.02106026	          0.01035031	          0.01028083	          0.01120489	          0.01320585	          0.01171397	          0.04673684	          0.04400845	          0.01982327	          0.01161833	          0.01165910	          0.02452757	          0.02507560	          0.04292461	          0.02990999	          0.01009773	          0.09927770	          0.06027149	          0.08884893	          0.04084017	          0.05540475	          0.03885982	          0.01754019	          0.32401726	          0.02894417	          0.03431971	          0.07702737	          0.31754520	          0.31818453	          0.09333341	          0.01212326	          0.01186836	          0.02411848	          0.35299719	          0.04427921	          0.01080463	          0.01157067	          0.01125520	          0.01133335	          0.11488396	          0.16964862	          0.02542307	          0.01004747	          0.11103159	          0.14415092	          0.02348024	          0.07254910	          0.19378681	          0.13373839	          0.05057073	          0.01497739	          0.05063524	          0.03254315	          0.01003739	          0.01002188	          0.01002206	          0.01016959	          0.01563823	          0.04941912	          0.10936518	          0.13524919	          0.10789825	          0.10468973	          0.19470950	          0.05320794	          0.07257703	          0.14094345	          0.20949332	          0.61755229	          0.14644181	          0.03592046	          0.04220230	          0.01533311	          0.47992539	          0.43866403	          0.03518832	          0.01491780	          0.05468687	          0.01391264	
          6.85000000	          7.36788868	         -2.75288156	        -31.38339186	         -4.26847827	          1.14864345	          0.35583941	         16.71115098	         13.91250400	         10.27528483	         -2.50510836	          1.25216487	        -33.43807722	         31.65389680	         63.04677462	         -1.89937226	          2.07418199	        -17.28411541	        -12.91642409	         -0.09914233	         -0.98911279	         -2.66769702	          3.89893136	         12.12406089	       -354.65443098	        -21.22408343	        -35.84221766	       -338.28048073	         -5.69643106	        -14.68127949	         60.37468088	        127.91475477	         85.57723976	         97.96967739	          0.01201927	          0.01757596	          0.01007189	          0.01005577	          0.01018767	          0.01131981	          0.01002543	          0.03917986	          0.04712154	          0.01686448	          0.01099507	          0.01077422	          0.05319532	          0.03495648	          0.03577764	          0.02492773	          0.01004173	          0.14881462	          0.05049028	          0.07445814	          0.09316965	          0.09701083	          0.07704188	          0.01466257	          0.43001292	          0.02524432	          0.02871889	          0.15758092	          0.49254621	          0.26518338	          0.14147460	          0.01010838	          0.01004704	          0.02023270	          0.40119869	          0.03698556	          0.01048241	          0.01019219	          0.01006001	          0.01012990	          0.09574112	          0.14137771	          0.02118970	          0.01004426	          0.09253005	          0.12013245	          0.01957081	          0.06046860	          0.17767428	          0.11162150	          0.04234086	          0.01261557	          0.04219698	          0.02712007	          0.01002968	          0.01001844	          0.01001699	          0.01018510	          0.01304010	          0.04118540	          0.22986710	          0.11275838	          0.08993282	          0.08724536	          0.23524186	          0.04434526	          0.06048378	          0.11746626	          0.17459364	          0.51463513	          0.12210334	          0.02993649	          0.03517046	          0.01277805	          0.50443031	          0.36556390	          0.02940354	          0.04218099	          0.06961389	          0.06120779	
